<svg width="13" height="13" viewBox="0 0 13 13" fill="none" xmlns="http://www.w3.org/2000/svg">
<g clip-path="url(#clip0_1_84658)">
<path d="M9.34374 6.50406C8.73168 6.50464 8.13614 6.70268 7.64562 7.06875L5.93124 5.35437C6.30164 4.86742 6.5015 4.27212 6.49999 3.66031C6.5016 3.01962 6.2868 2.39715 5.8904 1.8938C5.49401 1.39045 4.93925 1.0357 4.31604 0.887049C3.69282 0.738399 3.03767 0.804558 2.45676 1.0748C1.87585 1.34505 1.40322 1.80354 1.11546 2.37599C0.827703 2.94843 0.741685 3.60127 0.871346 4.22871C1.00101 4.85615 1.33875 5.42142 1.82984 5.83291C2.32093 6.2444 2.93658 6.478 3.57703 6.49585C4.21748 6.5137 4.84519 6.31475 5.35843 5.93125L7.06874 7.64562C6.68535 8.15873 6.4864 8.78624 6.50413 9.42652C6.52185 10.0668 6.75522 10.6823 7.16642 11.1734C7.57763 11.6645 8.14258 12.0024 8.76978 12.1324C9.39698 12.2624 10.0497 12.1768 10.6222 11.8895C11.1947 11.6023 11.6534 11.1301 11.9241 10.5496C12.1948 9.9691 12.2616 9.3142 12.1136 8.69099C11.9657 8.06779 11.6117 7.51278 11.109 7.11587C10.6063 6.71895 9.98427 6.50338 9.34374 6.50406ZM1.62499 3.66031C1.62499 3.25857 1.74413 2.86585 1.96732 2.53181C2.19052 2.19777 2.50776 1.93742 2.87892 1.78368C3.25008 1.62994 3.6585 1.58971 4.05252 1.66809C4.44655 1.74647 4.80848 1.93992 5.09256 2.224C5.37663 2.50808 5.57009 2.87001 5.64846 3.26403C5.72684 3.65806 5.68662 4.06647 5.53288 4.43764C5.37913 4.8088 5.11878 5.12604 4.78475 5.34923C4.45071 5.57243 4.05799 5.69156 3.65624 5.69156C3.11752 5.69156 2.60087 5.47755 2.21993 5.09662C1.839 4.71569 1.62499 4.19903 1.62499 3.66031Z" fill="black"/>
</g>
<defs>
<clipPath id="clip0_1_84658">
<rect width="13" height="13" fill="white"/>
</clipPath>
</defs>
</svg>
