<svg width="13" height="13" viewBox="0 0 13 13" fill="none" xmlns="http://www.w3.org/2000/svg">
<path d="M10.8333 8.66667C10.977 8.66667 11.1148 8.72373 11.2164 8.82532C11.3179 8.9269 11.375 9.06467 11.375 9.20833V10.2917C11.375 10.7226 11.2038 11.136 10.899 11.4407C10.5943 11.7455 10.181 11.9167 9.75 11.9167H3.25C2.81902 11.9167 2.4057 11.7455 2.10095 11.4407C1.7962 11.136 1.625 10.7226 1.625 10.2917V9.20833C1.625 9.06467 1.68207 8.9269 1.78365 8.82532C1.88523 8.72373 2.02301 8.66667 2.16667 8.66667C2.31033 8.66667 2.4481 8.72373 2.54968 8.82532C2.65127 8.9269 2.70833 9.06467 2.70833 9.20833V10.2917C2.70833 10.4353 2.7654 10.5731 2.86698 10.6747C2.96857 10.7763 3.10634 10.8333 3.25 10.8333H9.75C9.89366 10.8333 10.0314 10.7763 10.133 10.6747C10.2346 10.5731 10.2917 10.4353 10.2917 10.2917V9.20833C10.2917 9.06467 10.3487 8.9269 10.4503 8.82532C10.5519 8.72373 10.6897 8.66667 10.8333 8.66667ZM6.5 1.625C6.64366 1.625 6.78143 1.68207 6.88302 1.78365C6.9846 1.88523 7.04167 2.02301 7.04167 2.16667V7.35854L8.82538 5.57538C8.92753 5.47671 9.06436 5.42211 9.20638 5.42334C9.34841 5.42458 9.48426 5.48154 9.58469 5.58197C9.68512 5.6824 9.74209 5.81826 9.74332 5.96028C9.74456 6.10231 9.68996 6.23913 9.59129 6.34129L6.88296 9.04963C6.86759 9.06504 6.85131 9.07951 6.83421 9.09296L6.88296 9.04963C6.78573 9.14675 6.65523 9.20329 6.51788 9.20779L6.5 9.20833H6.48267L6.45342 9.20617L6.5 9.20833C6.37883 9.20834 6.26115 9.16772 6.16579 9.09296C6.14869 9.07951 6.13241 9.06504 6.11704 9.04963L3.40871 6.34129C3.31004 6.23913 3.25544 6.10231 3.25668 5.96028C3.25791 5.81826 3.31488 5.6824 3.41531 5.58197C3.51574 5.48154 3.65159 5.42458 3.79362 5.42334C3.93564 5.42211 4.07247 5.47671 4.17462 5.57538L5.95833 7.35854V2.16667C5.95833 2.02301 6.0154 1.88523 6.11698 1.78365C6.21857 1.68207 6.35634 1.625 6.5 1.625Z" fill="black"/>
</svg>
