<svg width="13" height="13" viewBox="0 0 13 13" fill="none" xmlns="http://www.w3.org/2000/svg">
<path d="M10.3406 3.18141L11.0134 2.44102C11.1198 2.32107 11.1747 2.164 11.1661 2.00389C11.1575 1.84377 11.0861 1.6935 10.9674 1.58565C10.8487 1.47781 10.6924 1.42108 10.5321 1.42778C10.3719 1.43447 10.2208 1.50404 10.1116 1.62141L9.43921 2.36079C8.42718 1.64697 7.18918 1.32758 5.95813 1.46273C4.72708 1.59787 3.58784 2.17822 2.75477 3.0946C1.9217 4.01097 1.45222 5.20019 1.43465 6.43851C1.41709 7.67683 1.85266 8.87889 2.65941 9.81852L1.98656 10.5589C1.93161 10.6179 1.88893 10.6873 1.86098 10.7629C1.83303 10.8386 1.82037 10.919 1.82374 10.9996C1.8271 11.0801 1.84643 11.1592 1.88059 11.2323C1.91475 11.3053 1.96307 11.3709 2.02275 11.4251C2.08242 11.4793 2.15227 11.5212 2.22824 11.5482C2.30421 11.5753 2.38479 11.5869 2.46532 11.5826C2.54584 11.5783 2.6247 11.558 2.69733 11.523C2.76996 11.4879 2.83492 11.4388 2.88843 11.3785L3.56078 10.6391C4.57281 11.353 5.81081 11.6723 7.04186 11.5372C8.27291 11.4021 9.41214 10.8217 10.2452 9.90533C11.0783 8.98896 11.5478 7.79974 11.5653 6.56142C11.5829 5.3231 11.1473 4.12104 10.3406 3.18141ZM2.64062 6.49996C2.64003 5.80419 2.82769 5.12123 3.18372 4.52344C3.53974 3.92566 4.05086 3.43533 4.6629 3.10443C5.27495 2.77353 5.96511 2.61437 6.66026 2.64384C7.35541 2.6733 8.02963 2.89029 8.61148 3.2718L3.48714 8.90852C2.93846 8.22575 2.63977 7.37588 2.64062 6.49996ZM6.49999 10.3593C5.74956 10.3601 5.0154 10.1406 4.38851 9.72813L9.51285 4.09141C9.96748 4.65871 10.2525 5.34296 10.335 6.06525C10.4175 6.78754 10.2942 7.51845 9.97927 8.17368C9.66432 8.82891 9.17057 9.38176 8.55497 9.76848C7.93936 10.1552 7.22698 10.36 6.49999 10.3593Z" fill="black"/>
</svg>
