<svg width="13" height="13" viewBox="0 0 13 13" fill="none" xmlns="http://www.w3.org/2000/svg">
<path d="M10.7521 4.40912L10.5029 3.15245C10.3242 2.26954 9.54418 1.63037 8.64501 1.63037C7.74584 1.63037 7.02001 2.22079 6.80876 3.06579L5.15668 9.67954C5.06459 10.0425 4.74501 10.297 4.37126 10.297C3.99751 10.297 3.65084 10.0208 3.57501 9.64162L3.35293 8.54204C3.64622 8.41705 3.89644 8.20882 4.07262 7.94311C4.24881 7.67739 4.34322 7.36585 4.34418 7.04704C4.34418 6.15329 3.61293 5.42204 2.71918 5.42204C1.82543 5.42204 1.09418 6.15329 1.09418 7.04704C1.09418 7.7837 1.58709 8.4012 2.25876 8.5962L2.50793 9.85287C2.68668 10.7358 3.46668 11.375 4.36584 11.375C5.26501 11.375 5.99084 10.7845 6.20209 9.93954L7.85418 3.32579C7.94626 2.96287 8.26584 2.70829 8.63959 2.70829C9.01334 2.70829 9.36001 2.98454 9.43584 3.3637L9.65793 4.46329C9.36463 4.58827 9.11441 4.7965 8.93823 5.06222C8.76205 5.32793 8.66764 5.63947 8.66668 5.95829C8.66668 6.85204 9.39793 7.58329 10.2917 7.58329C11.1854 7.58329 11.9167 6.85204 11.9167 5.95829C11.9167 5.22162 11.4238 4.60412 10.7521 4.40912ZM2.70834 6.49995C3.00626 6.49995 3.25001 6.7437 3.25001 7.04162C3.25001 7.33954 3.00626 7.58329 2.70834 7.58329C2.41043 7.58329 2.16668 7.33954 2.16668 7.04162C2.16668 6.7437 2.41043 6.49995 2.70834 6.49995ZM10.2917 6.49995C9.99376 6.49995 9.75001 6.2562 9.75001 5.95829C9.75001 5.66037 9.99376 5.41662 10.2917 5.41662C10.5896 5.41662 10.8333 5.66037 10.8333 5.95829C10.8333 6.2562 10.5896 6.49995 10.2917 6.49995Z" fill="black"/>
</svg>
